<svg width="21" height="24" viewBox="0 0 21 24" fill="none" xmlns="http://www.w3.org/2000/svg">
<g clip-path="url(#clip0_32485_14585)">
<path d="M16.5846 18H3.51795C3.24154 18 3.01538 18.225 3.01538 18.5V19.5C3.01538 19.775 3.24154 20 3.51795 20H16.5846C16.861 20 17.0872 19.775 17.0872 19.5V18.5C17.0872 18.225 16.861 18 16.5846 18ZM18.5949 8C17.7625 8 17.0872 8.67188 17.0872 9.5C17.0872 9.72187 17.1374 9.92813 17.2254 10.1188L14.9513 11.475C14.4676 11.7625 13.8425 11.6 13.5629 11.1125L11.003 6.65625C11.3391 6.38125 11.559 5.96875 11.559 5.5C11.559 4.67188 10.8837 4 10.0513 4C9.21891 4 8.54359 4.67188 8.54359 5.5C8.54359 5.96875 8.76346 6.38125 9.09955 6.65625L6.53961 11.1125C6.26006 11.6 5.63186 11.7625 5.15128 11.475L2.88032 10.1188C2.96513 9.93125 3.01853 9.72187 3.01853 9.5C3.01853 8.67188 2.3432 8 1.51083 8C0.678461 8 0 8.67188 0 9.5C0 10.3281 0.67532 11 1.50769 11C1.58936 11 1.67103 10.9875 1.74955 10.975L4.02051 17H16.0821L18.353 10.975C18.4315 10.9875 18.5132 11 18.5949 11C19.4272 11 20.1026 10.3281 20.1026 9.5C20.1026 8.67188 19.4272 8 18.5949 8Z" fill="#FDD446"/>
</g>
<defs>
<clipPath id="clip0_32485_14585">
<rect width="20.1026" height="24" fill="white"/>
</clipPath>
</defs>
</svg>
