<svg width="16" height="16" viewBox="0 0 16 16" fill="none" xmlns="http://www.w3.org/2000/svg">
<path d="M6.73414 15.9168C6.54717 15.9168 6.38531 15.854 6.24856 15.7285C6.11181 15.603 6.02954 15.4467 6.00176 15.2597L5.75979 13.3783C5.53649 13.3035 5.30759 13.1988 5.07308 13.0642C4.83856 12.9296 4.62889 12.7854 4.44406 12.6315L2.70368 13.3655C2.52526 13.4435 2.34818 13.4526 2.17243 13.3927C1.99668 13.3329 1.85859 13.2207 1.75816 13.0562L0.504993 10.8735C0.409896 10.709 0.380514 10.5333 0.416847 10.3463C0.453167 10.1593 0.546646 10.0087 0.697285 9.89439L2.2037 8.75496C2.18447 8.63103 2.17084 8.50656 2.16283 8.38156C2.15481 8.25656 2.15081 8.1321 2.15081 8.00816C2.15081 7.88957 2.15481 7.7691 2.16283 7.64677C2.17084 7.52444 2.18447 7.39062 2.2037 7.24533L0.697285 6.10589C0.546646 5.99159 0.451833 5.84095 0.412847 5.65398C0.373847 5.46702 0.404563 5.29128 0.504993 5.12675L1.75816 2.96012C1.85859 2.79559 1.99535 2.68341 2.16843 2.62358C2.3415 2.56375 2.51724 2.57283 2.69566 2.65083L4.43604 3.37679C4.6369 3.21759 4.85138 3.07202 5.07947 2.94008C5.30758 2.80812 5.53168 2.70208 5.75176 2.62195L6.00176 0.740559C6.02954 0.553586 6.11181 0.397336 6.24856 0.271809C6.38531 0.146267 6.54717 0.0834961 6.73414 0.0834961H9.25814C9.4451 0.0834961 9.60828 0.146267 9.7477 0.271809C9.88713 0.397336 9.97074 0.553586 9.99851 0.740559L10.2405 2.62998C10.4905 2.72078 10.7167 2.82682 10.9192 2.94808C11.1217 3.06934 11.326 3.21225 11.5322 3.37679L13.3046 2.65083C13.483 2.57283 13.6588 2.56241 13.8318 2.61958C14.0049 2.67673 14.1417 2.78757 14.2421 2.9521L15.4953 5.12675C15.5957 5.29128 15.6264 5.46702 15.5874 5.65398C15.5484 5.84095 15.4536 5.99159 15.303 6.10589L13.7645 7.26935C13.7945 7.40398 13.8107 7.52978 13.8134 7.64677C13.8161 7.76375 13.8174 7.88155 13.8174 8.00014C13.8174 8.11339 13.8147 8.22851 13.8094 8.3455C13.8041 8.46248 13.7848 8.5963 13.7517 8.74696L15.2741 9.89439C15.4248 10.0087 15.5196 10.1593 15.5586 10.3463C15.5976 10.5333 15.5669 10.709 15.4665 10.8735L14.2133 13.0434C14.1128 13.2079 13.9726 13.3209 13.7926 13.3823C13.6126 13.4437 13.4333 13.4355 13.2549 13.3575L11.5322 12.6235C11.326 12.788 11.1155 12.9336 10.9008 13.0602C10.686 13.1868 10.4659 13.2902 10.2405 13.3703L9.99851 15.2597C9.97074 15.4467 9.88713 15.603 9.7477 15.7285C9.60828 15.854 9.4451 15.9168 9.25814 15.9168H6.73414ZM7.16681 14.6668H8.80462L9.10431 12.4344C9.52951 12.3233 9.91813 12.1655 10.2702 11.9609C10.6222 11.7563 10.9617 11.4932 11.2886 11.1716L13.3591 12.0418L14.1796 10.6251L12.3719 9.26296C12.4414 9.04715 12.4887 8.83562 12.5138 8.62835C12.5389 8.42109 12.5514 8.21169 12.5514 8.00014C12.5514 7.78327 12.5389 7.57387 12.5138 7.37193C12.4887 7.17002 12.4414 6.96382 12.3719 6.75335L14.1957 5.37514L13.3751 3.95848L11.2806 4.8415C11.0017 4.54341 10.6676 4.28006 10.2782 4.05143C9.88875 3.8228 9.49479 3.66093 9.09628 3.56585L8.83347 1.33348H7.17962L6.90399 3.55783C6.47877 3.65826 6.08614 3.81211 5.7261 4.01937C5.36606 4.22664 5.02258 4.49373 4.69566 4.82066L2.62514 3.95848L1.80462 5.37514L3.60431 6.7165C3.53486 6.91414 3.48625 7.1198 3.45847 7.33348C3.43069 7.54716 3.41681 7.77205 3.41681 8.00816C3.41681 8.22504 3.43069 8.43764 3.45847 8.64598C3.48625 8.85431 3.53219 9.05997 3.59628 9.26296L1.80462 10.6251L2.62514 12.0418L4.68764 11.1668C5.00388 11.4916 5.34201 11.7576 5.70206 11.9649C6.0621 12.1722 6.46007 12.3313 6.89597 12.4425L7.16681 14.6668ZM8.00974 10.5001C8.70312 10.5001 9.29313 10.2568 9.77976 9.77016C10.2664 9.28351 10.5097 8.6935 10.5097 8.00014C10.5097 7.30678 10.2664 6.71677 9.77976 6.23012C9.29313 5.74348 8.70312 5.50016 8.00974 5.50016C7.30784 5.50016 6.7157 5.74348 6.23333 6.23012C5.75097 6.71677 5.50979 7.30678 5.50979 8.00014C5.50979 8.6935 5.75097 9.28351 6.23333 9.77016C6.7157 10.2568 7.30784 10.5001 8.00974 10.5001Z" fill="#787486"/>
</svg>
