<svg width="16" height="15" viewBox="0 0 16 15" fill="none" xmlns="http://www.w3.org/2000/svg">
<path d="M7.37484 7.7078V10.4162C7.37484 10.5935 7.43466 10.742 7.55432 10.8617C7.67397 10.9813 7.82247 11.0411 7.99982 11.0411C8.17716 11.0411 8.32566 10.9813 8.44532 10.8617C8.56497 10.742 8.6248 10.5935 8.6248 10.4162V7.7078H11.3332C11.5105 7.7078 11.659 7.64798 11.7786 7.52833C11.8983 7.40867 11.9581 7.26017 11.9581 7.08283C11.9581 6.90548 11.8983 6.75698 11.7786 6.63733C11.659 6.51767 11.5105 6.45785 11.3332 6.45785H8.6248V3.74949C8.6248 3.57214 8.56497 3.42365 8.44532 3.30399C8.32566 3.18434 8.17716 3.12451 7.99982 3.12451C7.82247 3.12451 7.67397 3.18434 7.55432 3.30399C7.43466 3.42365 7.37484 3.57214 7.37484 3.74949V6.45785H4.66648C4.48914 6.45785 4.34064 6.51767 4.22098 6.63733C4.10133 6.75698 4.0415 6.90548 4.0415 7.08283C4.0415 7.26017 4.10133 7.40867 4.22098 7.52833C4.34064 7.64798 4.48914 7.7078 4.66648 7.7078H7.37484ZM2.42292 14.1661C2.00198 14.1661 1.64567 14.0203 1.354 13.7286C1.06234 13.437 0.916504 13.0807 0.916504 12.6597V1.50593C0.916504 1.08499 1.06234 0.728678 1.354 0.437012C1.64567 0.145345 2.00198 -0.000488281 2.42292 -0.000488281H13.5767C13.9977 -0.000488281 14.354 0.145345 14.6456 0.437012C14.9373 0.728678 15.0831 1.08499 15.0831 1.50593V12.6597C15.0831 13.0807 14.9373 13.437 14.6456 13.7286C14.354 14.0203 13.9977 14.1661 13.5767 14.1661H2.42292ZM2.42292 12.9162H13.5767C13.6408 12.9162 13.6996 12.8895 13.753 12.836C13.8064 12.7826 13.8332 12.7238 13.8332 12.6597V1.50593C13.8332 1.44182 13.8064 1.38305 13.753 1.32962C13.6996 1.2762 13.6408 1.24949 13.5767 1.24949H2.42292C2.35881 1.24949 2.30004 1.2762 2.24661 1.32962C2.19319 1.38305 2.16648 1.44182 2.16648 1.50593V12.6597C2.16648 12.7238 2.19319 12.7826 2.24661 12.836C2.30004 12.8895 2.35881 12.9162 2.42292 12.9162Z" fill="#787486"/>
</svg>
