<?xml version="1.0" encoding="UTF-8"?>
<svg id="_레이어_1" data-name="레이어_1" xmlns="http://www.w3.org/2000/svg" version="1.1" viewBox="0 0 26 26">
  <!-- Generator: Adobe Illustrator 29.3.1, SVG Export Plug-In . SVG Version: 2.1.0 Build 151)  -->
  <defs>
    <style>
      .st0 {
        fill: #333236;
      }
    </style>
  </defs>
  <path class="st0" d="M12.48,14.751l-3.414-3.414c-.047-.047-.084-.1-.111-.158-.027-.058-.041-.12-.041-.187,0-.133.045-.248.135-.346.09-.098.208-.147.355-.147h7.192c.147,0,.265.049.355.148.09.099.135.214.135.346,0,.033-.051.147-.152.343l-3.413,3.413c-.078.078-.16.136-.243.172-.084.036-.176.054-.276.054s-.193-.018-.276-.054c-.084-.036-.165-.093-.243-.172Z"/>
</svg>